<svg width="18" height="17" viewBox="0 0 18 17" fill="none" xmlns="http://www.w3.org/2000/svg">
<path d="M9.00001 14.275L4.85001 16.775C4.66668 16.8917 4.47501 16.9417 4.27501 16.925C4.07501 16.9083 3.90001 16.8417 3.75001 16.725C3.60001 16.6083 3.48334 16.4627 3.40001 16.288C3.31668 16.1127 3.30001 15.9167 3.35001 15.7L4.45001 10.975L0.775009 7.8C0.608343 7.65 0.504343 7.479 0.463009 7.287C0.421009 7.09566 0.433343 6.90833 0.500009 6.725C0.566676 6.54166 0.666676 6.39166 0.800009 6.275C0.933343 6.15833 1.11668 6.08333 1.35001 6.05L6.20001 5.625L8.07501 1.175C8.15834 0.974997 8.28768 0.824997 8.46301 0.724997C8.63768 0.624997 8.81668 0.574997 9.00001 0.574997C9.18334 0.574997 9.36268 0.624997 9.53801 0.724997C9.71268 0.824997 9.84168 0.974997 9.92501 1.175L11.8 5.625L16.65 6.05C16.8833 6.08333 17.0667 6.15833 17.2 6.275C17.3333 6.39166 17.4333 6.54166 17.5 6.725C17.5667 6.90833 17.5793 7.09566 17.538 7.287C17.496 7.479 17.3917 7.65 17.225 7.8L13.55 10.975L14.65 15.7C14.7 15.9167 14.6833 16.1127 14.6 16.288C14.5167 16.4627 14.4 16.6083 14.25 16.725C14.1 16.8417 13.925 16.9083 13.725 16.925C13.525 16.9417 13.3333 16.8917 13.15 16.775L9.00001 14.275Z" fill="#FFAC33"/>
</svg>
